# xmcd
#
# Track frame offsets:
#	182
#	13187
#	28700
#	41882
#	56382
#	72990
#	85577
#	95317
#	108730
#	120597
#	136515
#	149527
#	166970
#	183845
#	195522
#	213467
#	226822
#	249767
#	261335
#	272970
#	289985
#	306327
#	320960
#	334140
#	347350
#
# Disc length: 4930
#
# Revision: 1
# Processed by: cddbd v1.5.1PL0 Copyright (c) Steve Scherf et al.
# Submitted via: CDex 1.51
# Normalized: r0:TDELIM( - )
#
DISCID=72134019
DTITLE=Variés - 25 Géants du country
DYEAR=1900
DGENRE=Country
TTITLE0=Denis Champoux - Les nouveaux cowboys
TTITLE1=Marie Ève et Chateleine - Jambalaya medley
TTITLE2=John Starr - La route est mon pays
TTITLE3=André Breton - Un jour on sera séparés
TTITLE4=Carole King - Dérange moé pas
TTITLE5=Gerry Cormier - Sweet Suzanne
TTITLE6=Marie King - Merci mes amis
TTITLE7=Bobby Hachey - Anita
TTITLE8=Roger Miron - Écho et tyroliennes
TTITLE9=André Breton - Un royaume d'amour
TTITLE10=Mariette Labbé - Destination country
TTITLE11=Albert Babin - Essaye pas de comprendre
TTITLE12=Billy Hunter - Le diable est parmi nous
TTITLE13=John Starr - Ce que je suis
TTITLE14=André Breton - Un coeur brisé
TTITLE15=Denis Champoux - J'aurais le goût
TTITLE16=Carole King - Laisse-toi aller
TTITLE17=Bobby Hachey - Pour t'oublier
TTITLE18=Léo Benoit - Quand j'étais p'tit gars
TTITLE19=Marie King - Un si beau souvenir
TTITLE20=Gerry Joly - Milles après milles
TTITLE21=André Breton - Le routier
TTITLE22=Albert Babin - Hey Badoo
TTITLE23=Billy Hunter - Ce qu'elle est jolie
TTITLE24=La grosse machine - On est tous des chums
EXTD=
EXTT0=
EXTT1=
EXTT2=
EXTT3=
EXTT4=
EXTT5=
EXTT6=
EXTT7=
EXTT8=
EXTT9=
EXTT10=
EXTT11=
EXTT12=
EXTT13=
EXTT14=
EXTT15=
EXTT16=
EXTT17=
EXTT18=
EXTT19=
EXTT20=
EXTT21=
EXTT22=
EXTT23=
EXTT24=
PLAYORDER=
